<svg width="39" height="39" viewBox="0 0 39 39" fill="none" xmlns="http://www.w3.org/2000/svg">
<path fill-rule="evenodd" clip-rule="evenodd" d="M11.3138 0.1155C13.3665 0.021 14.021 0 19.25 0C24.479 0 25.1335 0.02275 27.1845 0.1155C29.2355 0.20825 30.6355 0.5355 31.8605 1.00975C33.1432 1.4945 34.307 2.25225 35.2695 3.23225C36.2495 4.193 37.0055 5.355 37.4885 6.6395C37.9645 7.8645 38.29 9.2645 38.3845 11.312C38.479 13.3683 38.5 14.0228 38.5 19.25C38.5 24.479 38.4773 25.1335 38.3845 27.1862C38.2918 29.2337 37.9645 30.6337 37.4885 31.8587C37.0055 33.1434 36.2482 34.3073 35.2695 35.2695C34.307 36.2495 33.1432 37.0055 31.8605 37.4885C30.6355 37.9645 29.2355 38.29 27.188 38.3845C25.1335 38.479 24.479 38.5 19.25 38.5C14.021 38.5 13.3665 38.4773 11.3138 38.3845C9.26625 38.2918 7.86625 37.9645 6.64125 37.4885C5.35661 37.0054 4.19269 36.2482 3.2305 35.2695C2.25116 34.3082 1.4933 33.1448 1.00975 31.8605C0.5355 30.6355 0.21 29.2355 0.1155 27.188C0.021 25.1317 0 24.4772 0 19.25C0 14.021 0.02275 13.3665 0.1155 11.3155C0.20825 9.2645 0.5355 7.8645 1.00975 6.6395C1.49401 5.35514 2.25246 4.1918 3.23225 3.2305C4.19307 2.25138 5.35583 1.49353 6.6395 1.00975C7.8645 0.5355 9.2645 0.21 11.312 0.1155H11.3138ZM27.0287 3.5805C24.9987 3.48775 24.3898 3.4685 19.25 3.4685C14.1102 3.4685 13.5012 3.48775 11.4712 3.5805C9.5935 3.66625 8.575 3.9795 7.896 4.24375C6.99825 4.59375 6.356 5.0085 5.68225 5.68225C5.04358 6.30359 4.55207 7.05999 4.24375 7.896C3.9795 8.575 3.66625 9.5935 3.5805 11.4712C3.48775 13.5012 3.4685 14.1102 3.4685 19.25C3.4685 24.3898 3.48775 24.9987 3.5805 27.0287C3.66625 28.9065 3.9795 29.925 4.24375 30.604C4.55175 31.4388 5.0435 32.1965 5.68225 32.8178C6.3035 33.4565 7.06125 33.9483 7.896 34.2563C8.575 34.5205 9.5935 34.8338 11.4712 34.9195C13.5012 35.0123 14.1085 35.0315 19.25 35.0315C24.3915 35.0315 24.9987 35.0123 27.0287 34.9195C28.9065 34.8338 29.925 34.5205 30.604 34.2563C31.5018 33.9063 32.144 33.4915 32.8178 32.8178C33.4565 32.1965 33.9483 31.4388 34.2563 30.604C34.5205 29.925 34.8338 28.9065 34.9195 27.0287C35.0123 24.9987 35.0315 24.3898 35.0315 19.25C35.0315 14.1102 35.0123 13.5012 34.9195 11.4712C34.8338 9.5935 34.5205 8.575 34.2563 7.896C33.9063 6.99825 33.4915 6.356 32.8178 5.68225C32.1964 5.04362 31.44 4.55212 30.604 4.24375C29.925 3.9795 28.9065 3.66625 27.0287 3.5805V3.5805ZM16.7913 25.1842C18.1644 25.7559 19.6934 25.833 21.1171 25.4025C22.5408 24.972 23.7709 24.0606 24.5973 22.8239C25.4237 21.5872 25.7951 20.102 25.6481 18.6219C25.5011 17.1418 24.8448 15.7587 23.7913 14.7087C23.1197 14.0376 22.3076 13.5237 21.4136 13.204C20.5195 12.8843 19.5658 12.7669 18.6209 12.8601C17.676 12.9533 16.7635 13.2548 15.9492 13.743C15.1348 14.2311 14.4388 14.8938 13.9113 15.6832C13.3838 16.4727 13.0378 17.3693 12.8984 18.3084C12.759 19.2476 12.8295 20.206 13.1049 21.1147C13.3804 22.0233 13.8538 22.8596 14.4913 23.5633C15.1287 24.267 15.9142 24.8206 16.7913 25.1842ZM12.2535 12.2535C13.1723 11.3347 14.2631 10.6059 15.4635 10.1086C16.664 9.61139 17.9506 9.35545 19.25 9.35545C20.5494 9.35545 21.836 9.61138 23.0365 10.1086C24.2369 10.6059 25.3277 11.3347 26.2465 12.2535C27.1653 13.1723 27.8941 14.2631 28.3914 15.4635C28.8886 16.664 29.1445 17.9506 29.1445 19.25C29.1445 20.5494 28.8886 21.836 28.3914 23.0365C27.8941 24.2369 27.1653 25.3277 26.2465 26.2465C24.3909 28.1021 21.8742 29.1445 19.25 29.1445C16.6258 29.1445 14.1091 28.1021 12.2535 26.2465C10.3979 24.3909 9.35546 21.8742 9.35546 19.25C9.35546 16.6258 10.3979 14.1091 12.2535 12.2535V12.2535ZM31.339 10.829C31.5667 10.6142 31.749 10.3559 31.875 10.0695C32.0011 9.78297 32.0684 9.4741 32.073 9.16113C32.0775 8.84816 32.0193 8.53746 31.9016 8.24742C31.7839 7.95738 31.6093 7.69389 31.3879 7.47257C31.1666 7.25124 30.9031 7.07658 30.6131 6.95891C30.323 6.84124 30.0123 6.78296 29.6994 6.78752C29.3864 6.79208 29.0775 6.85939 28.791 6.98547C28.5046 7.11154 28.2463 7.29382 28.0315 7.5215C27.6138 7.9643 27.3851 8.55246 27.394 9.16113C27.4029 9.76979 27.6486 10.351 28.079 10.7815C28.5095 11.2119 29.0907 11.4576 29.6994 11.4665C30.308 11.4754 30.8962 11.2467 31.339 10.829V10.829Z" fill="#C700D9"/>
</svg>
