<svg width="26" height="32" viewBox="0 0 26 32" fill="none" xmlns="http://www.w3.org/2000/svg">
<path d="M0.884877 11.2963C0.884877 9.93476 1.12288 8.64851 1.59188 7.44801C2.03997 6.28198 2.70571 5.21181 3.55363 4.29451C4.39982 3.38925 5.36815 2.60646 6.43063 1.96876C7.52073 1.30927 8.7009 0.811739 9.93413 0.491757C11.1822 0.164019 12.4674 -0.00126241 13.7579 7.25952e-06C15.7511 7.25952e-06 17.6061 0.421757 19.3264 1.26176C21.0242 2.08644 22.4693 3.35204 23.5106 4.92626C24.5851 6.52751 25.1189 8.33876 25.1189 10.3583C25.1189 11.5693 24.9999 12.754 24.7566 13.9125C24.5178 15.0704 24.1381 16.1946 23.6261 17.2603C23.1381 18.2918 22.5 19.2454 21.7326 20.09C20.9614 20.9212 20.0273 21.5848 18.9886 22.0395C17.8609 22.5337 16.641 22.7825 15.4099 22.7693C14.5541 22.7693 13.7001 22.568 12.8566 22.1638C12.0131 21.7613 11.4076 21.2083 11.0436 20.4995C10.9159 20.9913 10.7409 21.7018 10.5081 22.631C10.2841 23.5585 10.1336 24.157 10.0671 24.4283C9.99713 24.6978 9.86763 25.1475 9.67863 25.7705C9.55045 26.2314 9.38602 26.6813 9.18688 27.1163L8.58488 28.2958C8.32453 28.8019 8.03349 29.2916 7.71338 29.7623C7.39663 30.2208 7.00463 30.7685 6.53738 31.3985L6.27663 31.4913L6.10338 31.3023C5.91613 29.3195 5.81988 28.133 5.81988 27.741C5.81988 26.5808 5.95813 25.2788 6.23113 23.8333C6.49888 22.3895 6.92238 20.5748 7.49113 18.3925C8.05988 16.212 8.38538 14.9293 8.47288 14.5495C8.07213 13.7323 7.86913 12.6648 7.86913 11.3523C7.86913 10.304 8.19638 9.32226 8.85263 8.39826C9.51063 7.47776 10.3419 7.01751 11.3499 7.01751C12.1216 7.01751 12.7201 7.27301 13.1489 7.78576C13.5794 8.29676 13.7894 8.94076 13.7894 9.72651C13.7894 10.5595 13.5129 11.7653 12.9564 13.342C12.3999 14.9205 12.1234 16.0983 12.1234 16.8805C12.1234 17.6733 12.4069 18.3365 12.9739 18.8563C13.5334 19.3763 14.2734 19.6581 15.0371 19.642C15.7301 19.642 16.3724 19.4845 16.9691 19.1678C17.5565 18.8603 18.065 18.4213 18.4549 17.885C19.304 16.72 19.9093 15.3957 20.2346 13.9913C20.4026 13.2528 20.5321 12.551 20.6126 11.8913C20.6984 11.228 20.7351 10.6015 20.7351 10.0065C20.7351 7.82426 20.0421 6.12326 18.6649 4.90526C17.2806 3.68726 15.4781 3.08176 13.2609 3.08176C10.7391 3.08176 8.63038 3.89726 6.94163 5.53351C5.25113 7.16451 4.40063 9.23826 4.40063 11.753C4.40063 12.3078 4.48463 12.8433 4.64388 13.3613C4.79963 13.8775 4.96938 14.2888 5.15313 14.5933C5.33513 14.8925 5.50663 15.1848 5.66238 15.4543C5.81988 15.7238 5.90213 15.9163 5.90213 16.0318C5.90213 16.3853 5.80938 16.8455 5.62213 17.4143C5.42788 17.983 5.19863 18.2665 4.92213 18.2665C4.89588 18.2665 4.78738 18.2473 4.59838 18.207C3.94381 18.0116 3.35268 17.6463 2.88513 17.1483C2.38889 16.6321 1.99727 16.0248 1.73188 15.3598C1.46724 14.6971 1.26112 14.0126 1.11588 13.314C0.958957 12.653 0.88141 11.9756 0.884877 11.2963V11.2963Z" fill="#FF2D2D"/>
</svg>
