<svg width="42" height="35" viewBox="0 0 42 35" fill="none" xmlns="http://www.w3.org/2000/svg">
<path d="M39.2429 2.01702C39.2429 2.01702 35.8267 4.03491 33.9273 4.60709C32.9077 3.43481 31.5528 2.60392 30.0456 2.22681C28.5385 1.8497 26.9519 1.94456 25.5004 2.49856C24.0489 3.05256 22.8026 4.03897 21.93 5.32439C21.0574 6.6098 20.6006 8.13219 20.6214 9.68567V11.3785C17.6465 11.4557 14.6986 10.7959 12.0403 9.45789C9.38212 8.11991 7.09604 6.14528 5.38571 3.70988C5.38571 3.70988 -1.38571 18.9456 13.85 25.717C10.3636 28.0836 6.2104 29.2702 2 29.1027C17.2357 37.567 35.8571 29.1027 35.8571 9.63488C35.8571 9.16427 35.8097 8.69365 35.7217 8.22981C37.4484 6.52679 39.2429 2.01702 39.2429 2.01702Z" stroke="#0047FF" stroke-width="4" stroke-linecap="round" stroke-linejoin="round"/>
</svg>
